<svg xmlns="http://www.w3.org/2000/svg" viewBox="0 0 200 260" role="img" aria-label="environment avatar">
  <ellipse cx="100" cy="230" rx="90" ry="30" fill="#000" opacity="0.12"/>
  <path d="M40,260 L40,170 Q100,150 160,170 L160,260 Z" fill="#22c55e"/>
  <path d="M55,175 Q100,165 145,175 L150,210 Q100,200 50,210 Z" fill="#22c55e" opacity="0.85"/>
  <circle cx="100" cy="95" r="52" fill="#fcd9b6"/>
  <ellipse cx="100" cy="88" rx="54" ry="48" fill="#f5c99a"/>
  <circle cx="78" cy="82" r="5" fill="#334155"/>
  <circle cx="122" cy="82" r="5" fill="#334155"/>
  <path d="M72,74 Q78,69 84,74" stroke="#8b5a2b" stroke-width="2.5" fill="none" stroke-linecap="round"/>
  <path d="M116,74 Q122,69 128,74" stroke="#8b5a2b" stroke-width="2.5" fill="none" stroke-linecap="round"/>
  <path d="M90,108 Q100,114 110,108" stroke="#b45309" stroke-width="2.5" fill="none" stroke-linecap="round"/>
  <ellipse id="mouth-anchor" cx="100" cy="112" rx="0" ry="0" fill="none"/>
</svg>